<?xml version="1.0" encoding="UTF-8"?>
<svg xmlns="http://www.w3.org/2000/svg" id="Layer_1" data-name="Layer 1" viewBox="0 0 24 24">
  <path d="M13.5,6c-.931-.211-1.812-1.036-3-1-1.767,0-3.556,1.202-3.556,3.5,0,1.541,1.003,2.604,1.81,3.457,.772,.818,1.246,1.354,1.246,2.043,0,.337-.236,1.506-.409,2.359-.263,1.322-.539,2.617-.591,3.641,0,2.206,1.794,4,4,4,1.771,0,3.276-1.156,3.801-2.753,.362-.463,.143-2.687,.199-3.247,0-1.127,.337-2.325,.694-3.594,.396-1.409,.806-2.866,.806-4.406,0-4-3.632-4-5-4Zm1.306,7.594c-.396,1.409-.806,2.866-.806,4.406v2c0,.552-.449,1-1,1-.537,0-.977-.426-.999-.957,.061-.768,.31-1.999,.531-3.089,.29-1.437,.468-2.348,.468-2.954,0-1.916-1.193-3.18-2.065-4.103-.487-.516-.991-1.05-.991-1.397,0-.187,0-.5,.553-.5,.131,.007,.5,.194,.745,.318,.599,.304,1.345,.682,2.257,.682,2,0,2,.231,2,1,0,1.127-.337,2.325-.694,3.594ZM7.02,5.493c-.955,.112-1.85-1.097-1.999-2.699C4.871,1.191,5.554,.121,6.509,.009c.955-.112,1.82,.776,1.969,2.379,.149,1.603-.504,2.993-1.459,3.105Zm5.48-3.173c-.004-1.023,.489-1.661,1.099-1.678,.611-.017,1.108,.594,1.112,1.617,.004,1.023-.488,1.866-1.099,1.883s-1.109-.798-1.113-1.821Zm-3-.641C9.496,.656,9.989,.017,10.599,0c.611-.017,1.108,.594,1.112,1.617,.004,1.023-.488,1.866-1.099,1.883-.611,.017-1.109-.798-1.113-1.821Zm6,2.26c-.004-.877,.421-1.424,.946-1.438,.526-.015,.954,.509,.958,1.386,.003,.877-.42,1.599-.946,1.614s-.955-.684-.958-1.561Zm3.764,1.985c.002,.584-.279,1.066-.628,1.076-.349,.01-.634-.456-.636-1.041s.279-.949,.628-.959,.633,.339,.636,.924Z"/>
</svg>
