<?xml version="1.0" encoding="UTF-8"?>
<svg xmlns="http://www.w3.org/2000/svg" id="Layer_1" data-name="Layer 1" viewBox="0 0 24 24">
  <path d="m14.5,9.5c0,.818-.393,1.544-1,2v3c0,.828-.672,1.5-1.5,1.5s-1.5-.672-1.5-1.5v-3c-.607-.456-1-1.182-1-2,0-1.381,1.119-2.5,2.5-2.5s2.5,1.119,2.5,2.5Zm7.5-2.454v5.105c0,7.371-6.922,10.728-9.044,11.581,0,0-.577.268-.954.268s-1.052-.35-1.052-.35c-2.099-1.049-8.95-4.979-8.95-11.499v-5.105c0-2.279,1.453-4.292,3.616-5.01L11.528.076c.307-.102.637-.102.943,0l5.911,1.96c2.164.718,3.617,2.73,3.617,5.01Zm-3,0c0-.983-.627-1.853-1.562-2.162l-5.438-1.804-5.439,1.804c-.934.31-1.561,1.179-1.561,2.162v5.105c0,4.606,5.142,7.704,7.068,8.702,1.902-.808,6.932-3.443,6.932-8.702v-5.105Z"/>
</svg>
